<svg width="67" height="67" viewBox="0 0 67 67" fill="none" xmlns="http://www.w3.org/2000/svg">
<g clip-path="url(#clip0_1083_133)">
<path d="M27.3034 26.6135C33.4706 26.6135 38.4701 21.6141 38.4701 15.4469C38.4701 9.2797 33.4706 4.28021 27.3034 4.28021C21.1362 4.28021 16.1367 9.2797 16.1367 15.4469C16.1367 21.6141 21.1362 26.6135 27.3034 26.6135Z" fill="#3278BD"/>
<path d="M30.5971 59.2213C29.9821 58.6129 29.5807 57.8217 29.4532 56.9661C29.3257 56.1105 29.4789 55.2366 29.8899 54.4754L30.8763 52.6143L28.8477 52.0001C28.0204 51.7412 27.3002 51.2195 26.7964 50.5141C26.2926 49.8088 26.0326 48.9583 26.056 48.0918V44.2765C26.0544 43.4138 26.3304 42.5735 26.8432 41.8798C27.356 41.186 28.0783 40.6756 28.9035 40.424L30.9321 39.8099L29.9643 37.9488C29.5654 37.1979 29.4136 36.3404 29.5306 35.4983C29.6475 34.6562 30.0273 33.8724 30.6157 33.2588C29.1839 33.0714 27.7419 32.972 26.2979 32.961C22.0329 32.8606 17.7982 33.7026 13.8959 35.4269C9.99368 37.1512 6.52 39.7154 3.72266 42.9365V57.3601C3.72266 57.8537 3.91874 58.3271 4.26776 58.6761C4.61679 59.0252 5.09017 59.2213 5.58377 59.2213H30.5971Z" fill="#3278BD"/>
<path d="M62.7186 43.6608L58.9963 42.5442C58.7389 41.6248 58.3767 40.7381 57.9169 39.9014L59.778 36.4397C59.8499 36.3112 59.8762 36.1622 59.8526 36.0169C59.8289 35.8715 59.7567 35.7385 59.6477 35.6395L56.9491 32.9222C56.8452 32.8211 56.7127 32.7543 56.5695 32.731C56.4264 32.7077 56.2795 32.729 56.1488 32.792L52.7058 34.6531C51.8585 34.1922 50.9668 33.8181 50.0444 33.5364L48.9091 29.8142C48.8592 29.6769 48.7679 29.5585 48.648 29.4752C48.528 29.3919 48.3852 29.3478 48.2391 29.3489H44.368C44.2229 29.3529 44.0825 29.4016 43.966 29.4881C43.8495 29.5747 43.7624 29.695 43.7166 29.8328L42.6 33.555C41.6606 33.8308 40.7554 34.2117 39.9013 34.6903L36.5327 32.8292C36.4018 32.7596 36.2522 32.7329 36.1053 32.7529C35.9583 32.773 35.8214 32.8387 35.7138 32.9408L32.978 35.6208C32.8703 35.7247 32.7993 35.8607 32.7758 36.0085C32.7523 36.1562 32.7775 36.3076 32.8477 36.4397L34.7088 39.827C34.2098 40.6673 33.8041 41.5597 33.4991 42.4883L29.7769 43.6236C29.6361 43.6643 29.5125 43.7501 29.4251 43.8677C29.3377 43.9854 29.2913 44.1285 29.293 44.275V48.0903C29.2913 48.2368 29.3377 48.3799 29.4251 48.4976C29.5125 48.6152 29.6361 48.701 29.7769 48.7417L33.4991 49.877C33.7783 50.7884 34.1525 51.668 34.6158 52.5011L32.7547 56.0372C32.6845 56.1694 32.6592 56.3207 32.6827 56.4685C32.7063 56.6162 32.7772 56.7523 32.885 56.8561L35.658 59.5547C35.7656 59.6569 35.9025 59.7226 36.0494 59.7426C36.1964 59.7627 36.3459 59.736 36.4769 59.6664L39.9572 57.8053C40.7849 58.2519 41.6585 58.6076 42.5627 58.8661L43.6794 62.6814C43.7262 62.8221 43.8161 62.9446 43.9364 63.0314C44.0566 63.1182 44.2011 63.1651 44.3494 63.1653H48.1647C48.3098 63.1612 48.4501 63.1126 48.5667 63.0261C48.6832 62.9395 48.7703 62.8192 48.8161 62.6814L49.9327 58.8661C50.8257 58.6093 51.6872 58.2535 52.5011 57.8053L56.0186 59.6664C56.1495 59.736 56.2991 59.7627 56.446 59.7426C56.593 59.7226 56.7299 59.6569 56.8375 59.5547L59.5547 56.8561C59.6568 56.7486 59.7225 56.6116 59.7426 56.4647C59.7626 56.3177 59.736 56.1682 59.6663 56.0372L57.8052 52.5383C58.2494 51.7225 58.605 50.8615 58.8661 49.97L62.5883 48.8347C62.7281 48.7898 62.851 48.7034 62.9407 48.5871C63.0305 48.4708 63.0828 48.33 63.0908 48.1833V44.3308C63.0953 44.1959 63.0631 44.0623 62.9975 43.9443C62.932 43.8262 62.8355 43.7283 62.7186 43.6608ZM46.285 52.4453C45.0547 52.449 43.8511 52.0875 42.8264 51.4067C41.8017 50.726 41.0021 49.7564 40.5288 48.6209C40.0554 47.4854 39.9297 46.235 40.1674 45.0279C40.4052 43.8209 40.9957 42.7115 41.8643 41.8403C42.7329 40.9691 43.8405 40.3753 45.0468 40.1339C46.2531 39.8925 47.5039 40.0145 48.6408 40.4845C49.7778 40.9544 50.7497 41.7511 51.4335 42.7738C52.1174 43.7964 52.4825 44.999 52.4825 46.2292C52.4825 47.8746 51.8301 49.4528 50.6684 50.6181C49.5067 51.7833 47.9303 52.4404 46.285 52.4453Z" fill="#3278BD"/>
</g>
<defs>
<clipPath id="clip0_1083_133">
<rect width="67" height="67" fill="white"/>
</clipPath>
</defs>
</svg>
