<svg width="69" height="63" viewBox="0 0 69 63" fill="none" xmlns="http://www.w3.org/2000/svg">
<g filter="url(#filter0_d_1083_91)">
<path d="M41.5 13.75H19V3C19 1.34 20.34 0 22 0H41.5V13.75Z" fill="#1DA366"/>
<path d="M64 13.75H41.5V0H61C62.66 0 64 1.34 64 3V13.75Z" fill="#4DB47E"/>
<path d="M19 27.5V41.25V52C19 53.66 20.34 55 21.99 55H61.02C62.67 55 64.01 53.66 64.01 52V41.25V27.5H19Z" fill="#195D38"/>
<path d="M41.5 13.75H19V27.5H41.5V13.75Z" fill="#0A7D41"/>
<path d="M64 13.75H41.5V27.5H64V13.75Z" fill="#1DA366"/>
<path d="M64 27.5H41.5V41.25H64V27.5Z" fill="#0A7D41"/>
<g filter="url(#filter1_d_1083_91)">
<path d="M33 42.5H5C4.45 42.5 4 42.05 4 41.5V13.5C4 12.95 4.45 12.5 5 12.5H33C33.55 12.5 34 12.95 34 13.5V41.5C34 42.05 33.55 42.5 33 42.5Z" fill="url(#paint0_linear_1083_91)"/>
</g>
<path d="M23.0812 36L20.8312 32.79L18.9912 30.2L14.8312 36H10.5312L16.7012 27.43L10.8312 19H15.0912L17.3712 22.26L18.9912 24.67L20.6012 22.26L22.8512 19H27.1112L21.2412 27.43L27.4512 36H23.0812Z" fill="white"/>
</g>
<defs>
<filter id="filter0_d_1083_91" x="0" y="0" width="68.0117" height="63" filterUnits="userSpaceOnUse" color-interpolation-filters="sRGB">
<feFlood flood-opacity="0" result="BackgroundImageFix"/>
<feColorMatrix in="SourceAlpha" type="matrix" values="0 0 0 0 0 0 0 0 0 0 0 0 0 0 0 0 0 0 127 0" result="hardAlpha"/>
<feOffset dy="4"/>
<feGaussianBlur stdDeviation="2"/>
<feComposite in2="hardAlpha" operator="out"/>
<feColorMatrix type="matrix" values="0 0 0 0 0 0 0 0 0 0 0 0 0 0 0 0 0 0 0.25 0"/>
<feBlend mode="normal" in2="BackgroundImageFix" result="effect1_dropShadow_1083_91"/>
<feBlend mode="normal" in="SourceGraphic" in2="effect1_dropShadow_1083_91" result="shape"/>
</filter>
<filter id="filter1_d_1083_91" x="2" y="8.5" width="38" height="38" filterUnits="userSpaceOnUse" color-interpolation-filters="sRGB">
<feFlood flood-opacity="0" result="BackgroundImageFix"/>
<feColorMatrix in="SourceAlpha" type="matrix" values="0 0 0 0 0 0 0 0 0 0 0 0 0 0 0 0 0 0 127 0" result="hardAlpha"/>
<feOffset dx="2"/>
<feGaussianBlur stdDeviation="2"/>
<feComposite in2="hardAlpha" operator="out"/>
<feColorMatrix type="matrix" values="0 0 0 0 0 0 0 0 0 0 0 0 0 0 0 0 0 0 0.25 0"/>
<feBlend mode="normal" in2="BackgroundImageFix" result="effect1_dropShadow_1083_91"/>
<feBlend mode="normal" in="SourceGraphic" in2="effect1_dropShadow_1083_91" result="shape"/>
</filter>
<linearGradient id="paint0_linear_1083_91" x1="-11.7259" y1="4.3409" x2="33.8911" y2="38.7239" gradientUnits="userSpaceOnUse">
<stop offset="0.1123" stop-color="#17874E"/>
<stop offset="0.8823" stop-color="#0F6B35"/>
</linearGradient>
</defs>
</svg>
