<svg width="60" height="60" viewBox="0 0 60 60" fill="none" xmlns="http://www.w3.org/2000/svg">
<path d="M20.6255 39.3742C27.9479 32.0519 32.0532 27.9465 39.3755 20.6242M13.988 24.7867L10.013 28.7617C7.19842 31.5763 5.61719 35.3937 5.61719 39.3742C5.61719 43.3546 7.19842 47.1721 10.013 49.9867C12.8276 52.8013 16.6451 54.3825 20.6255 54.3825C24.606 54.3825 28.4234 52.8013 31.238 49.9867L35.213 46.0117M46.013 35.2117L49.988 31.2367C52.8026 28.4221 54.3839 24.6046 54.3839 20.6242C54.3839 16.6437 52.8026 12.8263 49.988 10.0117C47.1734 7.19708 43.356 5.61584 39.3755 5.61584C35.3951 5.61584 31.5776 7.19708 28.763 10.0117L24.788 13.9867" stroke="#3278BD" stroke-width="5" stroke-linecap="round" stroke-linejoin="round"/>
<line x1="40" y1="20.2426" x2="20.2426" y2="40" stroke="#3278BD" stroke-width="6" stroke-linecap="round"/>
</svg>
