<svg width="62" height="62" viewBox="0 0 62 62" fill="none" xmlns="http://www.w3.org/2000/svg">
<path d="M10.3346 5.16681H5.16797V49.0835C5.16797 50.4538 5.71231 51.7679 6.68125 52.7369C7.65019 53.7058 8.96435 54.2501 10.3346 54.2501H31.2596C31.0788 53.4235 31.0013 52.5451 31.0013 51.6668C31.0013 50.7885 31.0788 49.9101 31.2596 49.0835H10.3346V5.16681ZM33.5846 43.9168C35.9355 40.791 39.6813 38.7501 43.918 38.7501C48.1546 38.7501 51.9005 40.791 54.2513 43.9168H56.8346V15.5001C56.8346 12.6326 54.5355 10.3335 51.668 10.3335H20.668C19.2977 10.3335 17.9835 10.8778 17.0146 11.8468C16.0456 12.8157 15.5013 14.1299 15.5013 15.5001V43.9168H33.5846ZM51.668 15.5001V20.6668H36.168V15.5001H51.668ZM36.168 25.8335H51.668V31.0001H36.168V25.8335ZM18.0846 28.4168L25.8346 12.9168V23.2501H31.0013L23.2513 38.7501V28.4168H18.0846ZM36.6071 49.0835C36.3152 49.9134 36.1667 50.787 36.168 51.6668C36.168 53.7222 36.9845 55.6935 38.4379 57.1469C39.8913 58.6003 41.8625 59.4168 43.918 59.4168C48.2063 59.4168 51.668 55.9551 51.668 51.6668C51.668 47.3785 48.2063 43.9168 43.918 43.9168C40.5338 43.9168 37.6663 46.0868 36.6071 49.0835Z" fill="#2E7FC2"/>
<circle cx="43.5" cy="51.5" r="8.5" fill="#2E7FC2"/>
</svg>
