<svg width="69" height="69" viewBox="0 0 69 69" fill="none" xmlns="http://www.w3.org/2000/svg">
<path d="M28.75 54.625H37.375V63.25H28.75V54.625ZM34.5 5.75C49.8813 6.3825 56.58 21.9075 47.4375 33.5513C45.0513 36.4263 41.1988 38.3237 39.3013 40.7388C37.375 43.125 37.375 46 37.375 48.875H28.75C28.75 44.0737 28.75 40.02 30.6763 37.145C32.5738 34.27 36.4263 32.5737 38.8125 30.6763C45.77 24.2362 44.045 15.1225 34.5 14.375C32.2125 14.375 30.0187 15.2837 28.4012 16.9012C26.7837 18.5187 25.875 20.7125 25.875 23H17.25C17.25 18.425 19.0674 14.0374 22.3024 10.8024C25.5374 7.56741 29.925 5.75 34.5 5.75Z" fill="#3278BD"/>
</svg>
