<svg width="63" height="63" viewBox="0 0 63 63" fill="none" xmlns="http://www.w3.org/2000/svg">
<path d="M49.875 25.2525C49.875 32.025 46.5413 37.2356 41.4698 40.6665C40.2885 41.4645 39.6979 41.8635 39.4065 42.3203C39.1178 42.7718 39.0154 43.3703 38.8185 44.562L38.661 45.4886C38.3145 47.5834 38.1386 48.6308 37.4036 49.2529C36.6686 49.875 35.6081 49.875 33.4845 49.875H26.628C24.5044 49.875 23.4439 49.875 22.7089 49.2529C21.9739 48.6308 21.8006 47.5834 21.4489 45.4886L21.2966 44.562C21.0971 43.3729 21 42.777 20.7112 42.3255C20.4225 41.874 19.8293 41.4698 18.6454 40.6613C13.629 37.2304 10.5 32.0224 10.5 25.2525C10.5 14.2091 19.3147 5.25001 30.1875 5.25001C31.5102 5.24861 32.8295 5.3823 34.125 5.64901" stroke="#3278BD" stroke-width="5" stroke-linecap="round" stroke-linejoin="round"/>
<path d="M35.4375 49.875V52.5C35.4375 54.9754 35.4375 56.2118 34.6684 56.9809C33.8992 57.75 32.6629 57.75 30.1875 57.75C27.7121 57.75 26.4758 57.75 25.7066 56.9809C24.9375 56.2118 24.9375 54.9754 24.9375 52.5V49.875M43.3125 5.25L43.9897 7.07963C44.877 9.47888 45.3206 10.6785 46.1947 11.5526C47.0715 12.4294 48.2711 12.873 50.6704 13.7603L52.5 14.4375L50.6704 15.1147C48.2711 16.002 47.0715 16.4456 46.1974 17.3197C45.3206 18.1965 44.877 19.3961 43.9897 21.7954L43.3125 23.625L42.6353 21.7954C41.748 19.3961 41.3044 18.1965 40.4303 17.3224C39.5535 16.4456 38.3539 16.002 35.9546 15.1147L34.125 14.4375L35.9546 13.7603C38.3539 12.873 39.5535 12.4294 40.4276 11.5552C41.3044 10.6785 41.748 9.47888 42.6353 7.07963L43.3125 5.25Z" stroke="#3278BD" stroke-width="5" stroke-linejoin="round"/>
</svg>
