<svg width="70" height="70" viewBox="0 0 70 70" fill="none" xmlns="http://www.w3.org/2000/svg">
<path d="M35 61.25C28.2917 61.25 22.4467 59.0265 17.465 54.5796C12.4833 50.1326 9.62694 44.5783 8.89583 37.9167H14.875C15.5556 42.9722 17.8043 47.1528 21.6213 50.4583C25.4382 53.7639 29.8978 55.4167 35 55.4167C40.6875 55.4167 45.5126 53.4362 49.4754 49.4754C53.4382 45.5146 55.4186 40.6894 55.4167 35C55.4147 29.3106 53.4343 24.4864 49.4754 20.5275C45.5165 16.5686 40.6914 14.5872 35 14.5833C31.6458 14.5833 28.5104 15.3611 25.5938 16.9167C22.6771 18.4722 20.2222 20.6111 18.2292 23.3333H26.25V29.1667H8.75V11.6667H14.5833V18.5208C17.0625 15.4097 20.089 13.0035 23.6629 11.3021C27.2368 9.60069 31.0158 8.75 35 8.75C38.6458 8.75 42.0612 9.44319 45.2463 10.8296C48.4313 12.216 51.2021 14.0865 53.5588 16.4412C55.9154 18.796 57.7869 21.5668 59.1733 24.7537C60.5597 27.9407 61.2519 31.3561 61.25 35C61.2481 38.6439 60.5558 42.0593 59.1733 45.2462C57.7908 48.4332 55.9193 51.204 53.5588 53.5588C51.1982 55.9135 48.4274 57.785 45.2463 59.1733C42.0651 60.5617 38.6497 61.2539 35 61.25Z" fill="#3278BD"/>
<path d="M45 45L34 37.9286V23" stroke="#3278BD" stroke-width="5" stroke-linecap="round"/>
</svg>
