<svg width="58" height="58" viewBox="0 0 58 58" fill="none" xmlns="http://www.w3.org/2000/svg">
<path d="M9.66797 24.1667V35.148C9.66797 42.9901 9.66797 46.9123 11.8091 49.5683C12.2416 50.1045 12.7301 50.5931 13.2664 51.0255C15.9271 53.1667 19.8446 53.1667 27.6866 53.1667C29.3904 53.1667 30.2435 53.1667 31.0241 52.8912C31.1862 52.8336 31.3451 52.7675 31.5001 52.693C32.2493 52.3353 32.8511 51.7336 34.057 50.5277L45.5023 39.0823C46.8991 37.6855 47.5976 36.9871 47.9673 36.0978C48.3346 35.2084 48.3346 34.2224 48.3346 32.2456V24.1667C48.3346 15.0534 48.3346 10.4956 45.5023 7.66568C42.67 4.83576 38.1146 4.83334 29.0013 4.83334M31.418 51.9583V50.75C31.418 43.9157 31.418 40.4961 33.5422 38.3743C35.6641 36.25 39.0836 36.25 45.9156 36.25H47.1239" stroke="#3278BD" stroke-width="5" stroke-linecap="round" stroke-linejoin="round"/>
<path d="M16.918 19.3333C15.4511 17.9075 9.66797 14.1133 9.66797 12.0833C9.66797 10.0533 15.4511 6.25918 16.918 4.83334M10.8763 12.0833H16.918C21.4371 12.0833 23.6943 12.0833 25.3763 13.0548C26.4784 13.6911 27.3935 14.6063 28.0298 15.7083C29.0013 17.3903 29.0013 19.6475 29.0013 24.1667" stroke="#3278BD" stroke-width="5" stroke-linecap="round" stroke-linejoin="round"/>
</svg>
