<svg width="51" height="61" viewBox="0 0 51 61" fill="none" xmlns="http://www.w3.org/2000/svg">
<g filter="url(#filter0_d_1083_112)">
<path d="M6.15039 0.0429688H34.9502C35.5041 0.0429688 36.0364 0.26137 36.4307 0.650391L46.3301 10.417C46.7313 10.8129 46.957 11.3533 46.957 11.917V50.7402C46.9569 51.9038 46.0132 52.8467 44.8496 52.8467H6.15039C4.98681 52.8467 4.0431 51.9038 4.04297 50.7402V2.15039C4.04297 0.986727 4.98673 0.0429688 6.15039 0.0429688Z" fill="#FF4B42" stroke="#E4E4E4" stroke-width="0.086"/>
<path d="M4 36.1198H47V50.7398C47 51.9273 46.0374 52.8898 44.85 52.8898H6.15C4.96259 52.8898 4 51.9273 4 50.7398V36.1198Z" fill="#E01C12"/>
<path d="M22.6307 9.27862C22.7555 7.02257 25.543 6.74793 26.271 9.27862C26.8535 11.3032 25.9169 14.5558 25.3205 16.8783C25.9169 18.2439 27.8649 20.7746 29.0258 21.8928C32.9023 21.3043 35.0866 21.3699 36.523 22.0498C38.4711 22.9718 38.0579 25.2403 36.1688 25.424C34.5553 25.5809 32.1742 25.4239 28.7897 22.6186C27.9107 22.7363 25.291 23.2425 22.1584 24.3254C20.9581 26.2479 19.2854 28.8774 17.8686 30.0145C15.5467 31.8782 13.7954 31.2701 13.3035 30.25C12.6344 28.4451 15.3499 26.758 20.289 24.3254C21.0695 22.7821 22.8707 18.9227 23.831 15.8309C23.4112 14.8304 22.4732 12.1232 22.6307 9.27862ZM19.62 25.3847C12.8902 28.2799 13.2051 30.2303 14.4645 30.4265C15.7238 30.6227 17.2784 29.0336 19.62 25.3847ZM36.0901 23.6584C36.0114 21.8143 33.1779 21.8143 29.4785 22.4421C33.7879 25.5024 36.0901 24.9532 36.0901 23.6584ZM24.992 17.6161C23.953 20.6765 22.9455 22.8279 22.5716 23.5211C25.3737 22.6579 27.596 22.1936 28.3568 22.0694C26.7984 20.3116 25.4642 18.3681 24.992 17.6161ZM24.1852 14.85C25.8184 9.65134 25.2675 8.00345 24.0278 8.17999C22.7291 8.39578 22.9061 12.0839 24.1852 14.85Z" fill="white"/>
<path d="M18.843 44.9414H16.7959V43.7623H18.843C19.1779 43.7623 19.449 43.7077 19.6564 43.5985C19.8675 43.4857 20.0222 43.3328 20.1204 43.14C20.2187 42.9434 20.2678 42.7196 20.2678 42.4685C20.2678 42.2247 20.2187 41.9972 20.1204 41.7861C20.0222 41.5751 19.8675 41.404 19.6564 41.273C19.449 41.142 19.1779 41.0765 18.843 41.0765H17.2872V47.8401H15.786V39.8919H18.843C19.4617 39.8919 19.9894 40.0029 20.4261 40.2249C20.8665 40.4432 21.2013 40.7471 21.4306 41.1365C21.6635 41.5223 21.78 41.9626 21.78 42.4576C21.78 42.9707 21.6635 43.4129 21.4306 43.7841C21.2013 44.1553 20.8665 44.441 20.4261 44.6412C19.9894 44.8413 19.4617 44.9414 18.843 44.9414ZM25.3338 47.8401H23.6197L23.6306 46.661H25.3338C25.796 46.661 26.1836 46.5591 26.4965 46.3553C26.8095 46.1479 27.0461 45.8513 27.2062 45.4655C27.3663 45.0761 27.4464 44.6103 27.4464 44.068V43.6586C27.4464 43.24 27.4009 42.8707 27.3099 42.5504C27.2189 42.2301 27.0843 41.9608 26.906 41.7425C26.7313 41.5241 26.5147 41.3585 26.2563 41.2457C25.9979 41.1329 25.7013 41.0765 25.3665 41.0765H23.5869V39.8919H25.3665C25.8979 39.8919 26.3819 39.981 26.8186 40.1594C27.259 40.3377 27.6393 40.5943 27.9595 40.9291C28.2834 41.2603 28.5309 41.6569 28.702 42.1191C28.8767 42.5813 28.964 43.0981 28.964 43.6695V44.068C28.964 44.6357 28.8767 45.1525 28.702 45.6183C28.5309 46.0805 28.2834 46.4772 27.9595 46.8084C27.6393 47.1396 27.2572 47.3943 26.8132 47.5727C26.3692 47.751 25.876 47.8401 25.3338 47.8401ZM24.4603 39.8919V47.8401H22.9591V39.8919H24.4603ZM31.7426 39.8919V47.8401H30.2414V39.8919H31.7426ZM34.947 43.3256V44.5102H31.3496V43.3256H34.947ZM35.3674 39.8919V41.0765H31.3496V39.8919H35.3674Z" fill="white"/>
</g>
<defs>
<filter id="filter0_d_1083_112" x="0" y="0" width="51" height="60.89" filterUnits="userSpaceOnUse" color-interpolation-filters="sRGB">
<feFlood flood-opacity="0" result="BackgroundImageFix"/>
<feColorMatrix in="SourceAlpha" type="matrix" values="0 0 0 0 0 0 0 0 0 0 0 0 0 0 0 0 0 0 127 0" result="hardAlpha"/>
<feOffset dy="4"/>
<feGaussianBlur stdDeviation="2"/>
<feComposite in2="hardAlpha" operator="out"/>
<feColorMatrix type="matrix" values="0 0 0 0 0 0 0 0 0 0 0 0 0 0 0 0 0 0 0.25 0"/>
<feBlend mode="normal" in2="BackgroundImageFix" result="effect1_dropShadow_1083_112"/>
<feBlend mode="normal" in="SourceGraphic" in2="effect1_dropShadow_1083_112" result="shape"/>
</filter>
</defs>
</svg>
