<svg width="68" height="63" viewBox="0 0 68 63" fill="none" xmlns="http://www.w3.org/2000/svg">
<g filter="url(#filter0_d_1083_104)">
<path d="M37.5992 55C52.1795 55 63.9992 42.6878 63.9992 27.5C63.9992 12.3122 52.1795 0 37.5992 0C23.0189 0 11.1992 12.3122 11.1992 27.5C11.1992 42.6878 23.0189 55 37.5992 55Z" fill="url(#paint0_linear_1083_104)"/>
<path d="M37.5992 0C36.7892 0 35.9892 0.0399951 35.1992 0.119995V30H63.8792C63.9492 29.18 63.9892 28.34 63.9892 27.5C63.9992 12.31 52.1792 0 37.5992 0Z" fill="#F28D6D"/>
<g filter="url(#filter1_d_1083_104)">
<path d="M31.8 42.5H5C4.45 42.5 4 42.05 4 41.5V13.5C4 12.95 4.45 12.5 5 12.5H31.8C32.35 12.5 32.8 12.95 32.8 13.5V41.5C32.8 42.05 32.35 42.5 31.8 42.5Z" fill="url(#paint1_linear_1083_104)"/>
</g>
<path d="M12.6406 36.5V18.5H14.9906V36.5H12.6406ZM13.8506 29.52V27.12H19.2106C19.9806 27.12 20.5906 26.84 21.0606 26.27C21.5206 25.7 21.7606 24.95 21.7606 24.03C21.7606 23.09 21.5306 22.33 21.0606 21.76C20.6006 21.19 19.9806 20.91 19.2106 20.91H13.8506V18.5H19.1306C20.1406 18.5 21.0306 18.73 21.7806 19.19C22.5306 19.65 23.1206 20.29 23.5406 21.12C23.9606 21.95 24.1706 22.92 24.1706 24.03C24.1706 25.14 23.9606 26.1 23.5406 26.93C23.1206 27.76 22.5406 28.39 21.7806 28.85C21.0306 29.3 20.1406 29.53 19.1306 29.53H13.8506V29.52Z" fill="white"/>
</g>
<defs>
<filter id="filter0_d_1083_104" x="0" y="0" width="68" height="63" filterUnits="userSpaceOnUse" color-interpolation-filters="sRGB">
<feFlood flood-opacity="0" result="BackgroundImageFix"/>
<feColorMatrix in="SourceAlpha" type="matrix" values="0 0 0 0 0 0 0 0 0 0 0 0 0 0 0 0 0 0 127 0" result="hardAlpha"/>
<feOffset dy="4"/>
<feGaussianBlur stdDeviation="2"/>
<feComposite in2="hardAlpha" operator="out"/>
<feColorMatrix type="matrix" values="0 0 0 0 0 0 0 0 0 0 0 0 0 0 0 0 0 0 0.25 0"/>
<feBlend mode="normal" in2="BackgroundImageFix" result="effect1_dropShadow_1083_104"/>
<feBlend mode="normal" in="SourceGraphic" in2="effect1_dropShadow_1083_104" result="shape"/>
</filter>
<filter id="filter1_d_1083_104" x="2" y="8.5" width="36.8008" height="38" filterUnits="userSpaceOnUse" color-interpolation-filters="sRGB">
<feFlood flood-opacity="0" result="BackgroundImageFix"/>
<feColorMatrix in="SourceAlpha" type="matrix" values="0 0 0 0 0 0 0 0 0 0 0 0 0 0 0 0 0 0 127 0" result="hardAlpha"/>
<feOffset dx="2"/>
<feGaussianBlur stdDeviation="2"/>
<feComposite in2="hardAlpha" operator="out"/>
<feColorMatrix type="matrix" values="0 0 0 0 0 0 0 0 0 0 0 0 0 0 0 0 0 0 0.25 0"/>
<feBlend mode="normal" in2="BackgroundImageFix" result="effect1_dropShadow_1083_104"/>
<feBlend mode="normal" in="SourceGraphic" in2="effect1_dropShadow_1083_104" result="shape"/>
</filter>
<linearGradient id="paint0_linear_1083_104" x1="-11.426" y1="-13.1302" x2="72.0023" y2="56.0057" gradientUnits="userSpaceOnUse">
<stop offset="3.46306e-07" stop-color="#ED6C48"/>
<stop offset="1" stop-color="#D45230"/>
</linearGradient>
<linearGradient id="paint1_linear_1083_104" x1="3.7894" y1="14.5703" x2="42.9203" y2="49.2053" gradientUnits="userSpaceOnUse">
<stop offset="1.38522e-07" stop-color="#CB4C28"/>
<stop offset="1" stop-color="#B93318"/>
</linearGradient>
</defs>
</svg>
