<svg width="65" height="65" viewBox="0 0 65 65" fill="none" xmlns="http://www.w3.org/2000/svg">
<path fill-rule="evenodd" clip-rule="evenodd" d="M18.9596 59.5832C15.3682 59.5832 11.9238 58.1565 9.38423 55.6169C6.84468 53.0774 5.41797 49.633 5.41797 46.0415V37.9165C5.41797 37.1982 5.70331 36.5094 6.21122 36.0014C6.71913 35.4935 7.40801 35.2082 8.1263 35.2082C8.8446 35.2082 9.53347 35.4935 10.0414 36.0014C10.5493 36.5094 10.8346 37.1982 10.8346 37.9165V46.0415C10.8346 48.1964 11.6907 50.263 13.2144 51.7868C14.7381 53.3105 16.8048 54.1665 18.9596 54.1665H46.043C48.1979 54.1665 50.2645 53.3105 51.7882 51.7868C53.3119 50.263 54.168 48.1964 54.168 46.0415V37.9165C54.168 37.1982 54.4533 36.5094 54.9612 36.0014C55.4691 35.4935 56.158 35.2082 56.8763 35.2082C57.5946 35.2082 58.2835 35.4935 58.7914 36.0014C59.2993 36.5094 59.5846 37.1982 59.5846 37.9165V46.0415C59.5846 49.633 58.1579 53.0774 55.6184 55.6169C53.0788 58.1565 49.6344 59.5832 46.043 59.5832H18.9596Z" fill="#3278BD"/>
<path fill-rule="evenodd" clip-rule="evenodd" d="M19.7299 27.3537C19.4809 27.0993 19.2845 26.7984 19.1519 26.468C19.0194 26.1377 18.9532 25.7845 18.9572 25.4286C18.9612 25.0726 19.0354 24.721 19.1754 24.3938C19.3154 24.0665 19.5186 23.7701 19.7733 23.5214L31.9608 11.6047C32.4668 11.1101 33.1463 10.8332 33.8539 10.8332C34.5615 10.8332 35.241 11.1101 35.747 11.6047L47.9345 23.5214C48.1943 23.7687 48.4023 24.0652 48.5466 24.3936C48.6908 24.722 48.7684 25.0757 48.7748 25.4343C48.7813 25.7929 48.7164 26.1493 48.584 26.4826C48.4516 26.8159 48.2543 27.1197 48.0036 27.3761C47.7528 27.6326 47.4536 27.8367 47.1234 27.9766C46.7931 28.1165 46.4384 28.1894 46.0797 28.1911C45.7211 28.1928 45.3656 28.1233 45.0341 27.9865C44.7025 27.8497 44.4014 27.6484 44.1483 27.3943L36.5622 19.9762V43.3329C36.5622 44.0512 36.2769 44.74 35.769 45.2479C35.2611 45.7559 34.5722 46.0412 33.8539 46.0412C33.1356 46.0412 32.4467 45.7559 31.9388 45.2479C31.4309 44.74 31.1456 44.0512 31.1456 43.3329V19.9762L23.5622 27.3943C23.3079 27.6433 23.0069 27.8397 22.6766 27.9723C22.3462 28.1049 21.993 28.1711 21.6371 28.167C21.2812 28.163 20.9295 28.0889 20.6023 27.9488C20.275 27.8088 19.9786 27.6057 19.7299 27.351V27.3537Z" fill="#3278BD"/>
</svg>
